<svg xmlns="http://www.w3.org/2000/svg" width="512" height="512" viewBox="0 0 512 512" fill="none"><g clip-path="url(#clip0_1180_5)"><g filter="url(#filter0_d_1180_5)"><path d="M428.601 437.071C402.399 448.439 374.457 454.203 345.547 454.203C252.628 454.203 174.015 393.492 149.375 310.695H390.924V273.898H142.235C141.65 267.782 141.355 261.643 141.351 255.5C141.351 249.296 141.66 243.162 142.235 237.102H390.923V200.305H149.374C174.014 117.508 252.628 56.7969 345.546 56.7969C374.456 56.7969 402.399 62.5611 428.599 73.9286L443.998 40.3211C412.921 26.8369 379.797 20 345.547 20C280.904 20 220.13 44.4966 174.42 88.9757C142.398 120.137 120.471 158.499 110.201 200.305H44.9258V237.102H104.269C103.784 243.223 103.54 249.36 103.537 255.5C103.537 261.673 103.789 267.808 104.269 273.898H44.9258V310.695H110.2C120.47 352.5 142.397 390.862 174.419 422.024C220.13 466.504 280.904 491 345.547 491C379.797 491 412.922 484.163 444 470.679L428.601 437.071Z" fill="#CE5277" stroke="#CE5277" stroke-width="30"></path></g></g><defs><filter id="filter0_d_1180_5" x="25.9258" y="5" width="442.086" height="509" filterUnits="userSpaceOnUse" color-interpolation-filters="sRGB"><feGaussianBlur stdDeviation="2"></feGaussianBlur></filter><clipPath id="clip0_1180_5"><rect width="512" height="512" fill="white"></rect></clipPath></defs></svg>