<svg xmlns="http://www.w3.org/2000/svg" width="512" height="512" viewBox="0 0 512 512" fill="none"><path d="M450.783 453.377C423.066 465.734 393.508 472 362.927 472C264.636 472 181.478 406.004 155.414 316H410.927V276H147.861C147.242 269.351 146.93 262.677 146.926 256C146.926 249.256 147.253 242.588 147.861 236H410.926V196H155.413C181.477 105.996 264.636 40 362.926 40C393.507 40 423.066 46.266 450.781 58.623L467.07 22.09C434.196 7.432 399.157 0 362.927 0C294.547 0 230.259 26.629 181.907 74.98C148.033 108.854 124.839 150.555 113.975 196H44.9258V236H107.7C107.187 242.654 106.928 249.326 106.926 256C106.926 262.71 107.192 269.379 107.7 276H44.9258V316H113.974C124.838 361.444 148.032 403.145 181.906 437.02C230.259 485.372 294.547 512 362.927 512C399.157 512 434.197 504.568 467.072 489.91L450.783 453.377Z" fill="#CE5277"></path></svg>